# xmcd CD database file
#
# Track frame offsets:
#	150
#	21975
#	37215
#	57180
#	73582
#	94297
#	115402
#	154079
#	171254
#	191909
#
# Disc length: 2839 seconds
#
# Revision: 0
# Processed by: cddbd v1.5.2PL0 Copyright (c) Steve Scherf et al.
# Submitted via: CDex 1.70beta2
#
DISCID=920b150a
DTITLE=CROW'SCLAW - Crossfire Barrage
DYEAR=2008
DGENRE=東方アレンジ
TTITLE0=Scarlet Devil ／ 亡き王女の為のセプテット
TTITLE1=Mountain Of Faith ／ 神さびた古戦場 ～ Suwa Foughten Field
TTITLE2=Crossfire Barrage ／ 彼岸帰航 ～ Riverside View
TTITLE3=Extend Sky ／ エクステンドアッシュ ～ 蓬莱人
TTITLE4=Twin Crescent ／ 東方妖々夢 ～ Ancient Temple
TTITLE5=Selaginella 9 ／ 上海紅茶館 ～ Chinese Tea
TTITLE6=Puppet Of The Magus, Pt.1 ／ The Grimoire of Alice, 星の器 ～ Casket Of Star, And More...
TTITLE7=Necro Phantasia ／ ネクロファンタジア
TTITLE8=Still WInter ／ 無何有の郷 ～ Deep Mountain
TTITLE9=Gray Thaumaturgy ／ 信仰は儚き人間の為に
EXTD=YEAR: 2008
EXTT0=
EXTT1=
EXTT2=
EXTT3=
EXTT4=
EXTT5=
EXTT6=
EXTT7=
EXTT8=
EXTT9=
PLAYORDER=
